<?xml version="1.0" standalone="no"?>
<!DOCTYPE svg PUBLIC "-//W3C//DTD SVG 20010904//EN"
 "http://www.w3.org/TR/2001/REC-SVG-20010904/DTD/svg10.dtd">
<svg version="1.0" xmlns="http://www.w3.org/2000/svg"
 width="320.000000pt" height="320.000000pt" viewBox="0 0 320.000000 320.000000"
 preserveAspectRatio="xMidYMid meet">
<metadata>
Created by potrace 1.14, written by Peter Selinger 2001-2017
</metadata>
<g transform="translate(0.000000,320.000000) scale(0.100000,-0.100000)"
fill="#000000" stroke="none">
<path d="M410 2956 c-181 -51 -281 -202 -267 -404 7 -103 29 -170 77 -231 72
-91 171 -133 315 -132 104 0 194 24 266 70 62 39 73 74 67 199 -5 89 -7 98
-32 119 -25 21 -36 23 -155 23 -111 0 -130 -2 -144 -18 -10 -10 -17 -29 -17
-43 0 -47 13 -54 110 -58 l91 -3 -3 -62 -3 -61 -65 -22 c-190 -65 -331 19
-347 205 -15 186 72 306 221 306 77 -1 116 -21 162 -83 19 -27 41 -52 50 -55
31 -12 64 -6 84 16 62 67 -33 197 -171 234 -65 17 -177 17 -239 0z"/>
<path d="M1230 2956 c-68 -19 -102 -40 -153 -91 -76 -78 -112 -211 -95 -355
25 -207 159 -323 373 -322 237 1 381 172 362 431 -10 152 -80 263 -199 316
-50 23 -80 29 -153 31 -54 2 -108 -2 -135 -10z m210 -136 c52 -27 86 -73 105
-145 18 -72 19 -113 1 -187 -30 -128 -130 -196 -249 -167 -101 24 -157 118
-157 265 0 118 37 196 112 233 56 27 135 28 188 1z"/>
<path d="M1871 2944 c-20 -26 -21 -38 -21 -359 0 -321 1 -333 21 -359 l20 -26
228 0 c250 0 271 5 271 58 -1 63 -28 72 -219 72 l-160 0 -3 294 -3 294 -24 26
c-33 36 -82 35 -110 0z"/>
<path d="M2523 2950 c-12 -5 -26 -18 -32 -29 -12 -22 -16 -667 -5 -696 9 -23
59 -43 90 -37 54 10 63 57 64 325 0 15 13 17 140 17 127 0 142 2 160 20 25 25
25 41 1 71 -18 23 -26 24 -159 27 l-141 3 -3 80 c-2 44 -1 84 0 89 2 6 61 10
142 10 75 0 152 3 169 6 63 13 80 88 26 112 -31 14 -418 16 -452 2z"/>
<path d="M2380 2346 c0 -7 6 -26 14 -41 10 -19 12 -36 5 -58 -5 -18 -9 -33 -9
-34 0 -1 15 -3 33 -5 l32 -3 3 -397 2 -398 85 0 85 0 0 150 0 150 29 0 c16 0
36 -3 45 -6 9 -3 43 -58 77 -123 34 -64 69 -124 78 -135 26 -29 33 -210 12
-286 -18 -63 -46 -124 -65 -139 -9 -8 -16 -19 -16 -27 0 -7 -5 -25 -12 -39
-13 -28 -40 -34 -37 -7 3 29 0 32 -25 22 -15 -5 -27 -5 -34 2 -8 8 -18 8 -37
0 -42 -19 -59 -90 -31 -128 14 -18 15 -17 30 18 18 42 56 71 56 42 0 -38 -32
-83 -75 -103 -24 -11 -58 -39 -76 -61 -23 -28 -45 -43 -73 -51 -23 -6 -50 -19
-61 -30 -11 -10 -40 -25 -63 -33 -24 -9 -62 -31 -86 -51 -24 -19 -47 -35 -52
-35 -23 0 -85 -22 -97 -35 -31 -30 -84 -55 -119 -55 -27 0 -47 -8 -71 -30 -26
-22 -45 -30 -73 -30 -22 0 -52 -9 -69 -20 -17 -12 -47 -20 -70 -20 -23 0 -47
-6 -54 -12 -6 -7 -35 -14 -64 -15 -29 0 -68 -4 -88 -8 -29 -6 -41 -2 -64 17
-37 33 -26 54 16 32 35 -18 48 -12 29 11 -22 26 -70 47 -95 41 -14 -4 -28 0
-36 10 -7 8 -30 24 -51 35 -40 20 -55 40 -43 59 4 7 12 7 26 0 27 -15 24 2 -5
29 -15 14 -33 21 -48 19 -17 -2 -30 6 -51 35 -15 20 -31 37 -37 37 -5 0 -15
10 -21 23 -11 20 -11 21 4 9 13 -11 15 -10 10 9 -5 18 -3 21 10 16 20 -8 21
-3 6 26 -26 49 -53 49 -46 0 5 -36 4 -36 -19 16 -14 29 -30 73 -36 96 -10 37
-9 45 5 60 13 13 15 21 6 36 -6 12 -17 18 -24 15 -7 -2 -16 2 -20 11 -3 10 -9
13 -15 7 -19 -19 34 -204 90 -315 41 -80 103 -162 179 -239 296 -297 747 -371
1124 -184 99 49 214 136 282 213 16 19 35 39 41 45 71 73 172 285 198 421 26
131 23 302 -6 410 -6 22 -14 54 -18 70 l-7 30 91 0 91 0 2 73 2 72 -34 0 c-54
0 -64 9 -105 90 -21 42 -51 91 -65 108 -15 18 -22 32 -17 32 9 0 217 298 210
301 -11 4 -180 4 -186 -1 -5 -3 -39 -52 -76 -110 -38 -58 -74 -108 -80 -112
-6 -4 -30 -8 -53 -8 l-43 0 0 166 0 165 -22 -15 c-26 -19 -40 -19 -91 -5 -47
13 -67 52 -67 134 l0 55 -35 0 c-23 0 -35 -5 -35 -14z m380 -1530 c0 -35 -32
-87 -46 -73 -4 4 0 21 9 36 9 16 17 39 17 50 0 12 5 21 10 21 6 0 10 -15 10
-34z m-115 -125 c-12 -24 -33 -41 -51 -41 -11 0 -2 23 16 43 12 12 24 33 27
46 l6 25 8 -23 c6 -15 4 -32 -6 -50z m-125 -66 c0 -14 -9 -34 -20 -45 -21 -21
-60 -27 -60 -10 0 6 5 10 11 10 15 0 49 39 49 57 0 7 5 13 10 13 6 0 10 -11
10 -25z m76 -93 c-14 -27 -43 -48 -53 -38 -3 2 8 23 23 45 31 48 55 42 30 -7z
m-226 -20 c-12 -20 -25 -28 -50 -30 l-35 -3 30 20 c16 11 33 30 37 42 7 18 11
20 21 10 9 -9 8 -18 -3 -39z m110 -39 c-1 -30 -26 -53 -56 -53 l-29 1 28 17
c15 9 30 25 33 34 7 23 24 23 24 1z m-273 -50 c-20 -21 -31 -24 -54 -18 -17 5
-22 9 -13 12 37 11 59 27 64 47 6 20 7 20 17 2 9 -15 7 -23 -14 -43z m143 -33
c0 -21 -27 -40 -57 -40 -14 0 -12 5 12 29 36 35 45 37 45 11z m-280 -8 c0 -10
-5 -23 -12 -30 -15 -15 -55 -16 -64 0 -4 6 -3 8 3 5 6 -4 21 4 34 17 30 29 39
31 39 8z m-137 -56 c6 -16 -11 -33 -30 -30 -7 1 -23 2 -35 4 -19 1 -17 3 10
11 17 5 32 14 32 19 0 15 17 12 23 -4z m287 1 c0 -7 -5 -18 -12 -25 -15 -15
-68 -16 -68 -1 0 5 4 8 9 5 5 -3 20 3 32 14 28 23 39 25 39 7z m-424 -56 c-9
-14 -53 -14 -61 -1 -3 6 3 10 14 10 11 0 23 5 27 11 4 7 10 7 16 1 6 -6 7 -15
4 -21z m294 -6 c0 -18 -43 -30 -67 -19 -15 6 -14 8 7 12 14 2 29 8 35 13 14
13 25 11 25 -6z m-420 -15 c0 -5 -6 -10 -14 -10 -8 0 -18 5 -21 10 -3 6 3 10
14 10 12 0 21 -4 21 -10z m305 -30 c4 -6 -11 -10 -37 -9 -33 0 -38 2 -23 9 28
12 53 12 60 0z"/>
<path d="M379 2137 c-98 -41 -168 -105 -212 -194 -32 -65 -39 -95 -38 -180 2
-161 107 -309 257 -360 35 -12 44 -19 39 -32 -14 -34 -17 -99 -5 -121 11 -20
10 -24 -6 -33 -44 -25 -116 -104 -141 -156 -39 -79 -40 -191 -2 -272 30 -64
90 -129 145 -157 l37 -19 -101 -7 c-56 -4 -102 -12 -102 -16 0 -18 82 -25 310
-25 231 0 341 8 324 25 -9 9 -77 18 -149 20 l-40 1 38 20 c54 28 112 92 144
157 24 48 28 69 27 137 0 103 -31 172 -109 243 -59 55 -117 79 -207 89 l-58 6
0 42 c0 53 14 70 74 84 270 65 393 381 235 606 l-38 55 37 -6 c20 -3 52 -14
70 -25 42 -24 51 -24 86 7 l28 25 -22 24 c-50 53 -105 70 -240 73 -69 1 -170
5 -225 7 -89 5 -106 3 -156 -18z m121 -137 c-6 -11 -13 -20 -16 -20 -2 0 0 9
6 20 6 11 13 20 16 20 2 0 0 -9 -6 -20z m87 11 c12 5 22 5 22 1 -4 -23 4 -29
32 -26 28 4 30 2 18 -13 -8 -9 -9 -14 -3 -10 7 4 17 0 24 -7 6 -8 20 -13 30
-11 11 2 22 0 25 -5 3 -5 -4 -7 -15 -5 -29 5 -25 -14 5 -25 14 -5 25 -12 25
-16 0 -3 -7 -4 -15 0 -12 4 -13 2 -2 -14 6 -11 15 -20 19 -20 4 0 5 -7 2 -15
-4 -8 -10 -15 -16 -15 -5 0 -7 4 -4 8 2 4 1 14 -3 21 -6 10 -10 9 -14 -4 -4
-9 -3 -14 1 -11 5 3 9 -1 9 -9 0 -8 -3 -13 -5 -10 -3 3 -11 0 -19 -6 -9 -9
-13 -8 -13 0 0 6 4 11 8 11 5 0 8 13 8 29 0 17 -3 28 -8 25 -4 -3 -8 0 -8 5 0
6 -5 11 -12 11 -6 0 -4 -8 6 -19 13 -14 14 -21 5 -27 -8 -4 -10 -3 -5 4 10 17
-5 15 -34 -4 l-25 -16 23 20 c23 21 30 38 11 26 -8 -4 -8 0 0 15 9 17 9 21 -2
21 -8 0 -20 7 -27 15 -7 8 -21 15 -32 15 -12 0 -17 5 -13 13 4 6 0 4 -8 -5 -8
-10 -18 -18 -23 -18 -4 0 -3 5 4 12 18 18 15 23 -14 24 -33 2 -40 10 -24 29 8
10 17 12 28 6 9 -5 26 -5 39 0z m-117 -31 c0 -5 -2 -10 -4 -10 -3 0 -8 5 -11
10 -3 6 -1 10 4 10 6 0 11 -4 11 -10z m160 -54 c0 -3 -4 -8 -10 -11 -5 -3 -10
-1 -10 4 0 6 5 11 10 11 6 0 10 -2 10 -4z m-122 -53 c-3 -18 -38 -27 -38 -11
0 6 7 7 16 4 13 -5 15 -2 11 14 -3 11 -1 17 4 14 6 -3 9 -13 7 -21z m262 7 c0
-5 -5 -10 -11 -10 -5 0 -7 5 -4 10 3 6 8 10 11 10 2 0 4 -4 4 -10z m-193 -6
c-3 -3 -12 -4 -19 -1 -8 3 -5 6 6 6 11 1 17 -2 13 -5z m-167 -17 c0 -5 -7 -7
-15 -3 -9 3 -15 0 -15 -9 0 -8 -5 -15 -10 -15 -7 0 -7 6 -1 18 10 19 41 26 41
9z m174 -9 c-5 -8 -1 -9 12 -4 14 5 16 4 7 -5 -13 -13 -37 -3 -28 12 4 5 8 9
11 9 3 0 2 -5 -2 -12z m183 -26 c-20 -11 -20 -12 -2 -10 18 3 20 -3 21 -57 1
-33 -1 -64 -4 -70 -4 -5 -7 -15 -8 -22 -3 -18 -44 -74 -74 -101 -75 -70 -210
-88 -304 -41 -57 28 -127 106 -130 142 0 14 -4 23 -8 20 -12 -7 -9 32 3 44 8
8 7 13 -2 18 -8 5 -10 4 -5 -3 4 -7 2 -12 -3 -12 -6 0 -11 10 -11 23 0 32 11
67 21 67 5 0 6 -6 3 -13 -3 -8 3 -13 16 -13 22 0 27 12 8 18 -8 3 -4 10 11 17
19 11 22 11 16 0 -6 -9 -3 -10 10 -5 10 4 21 2 25 -5 6 -8 13 -8 30 1 13 7 25
8 29 3 7 -10 26 -11 37 0 13 12 26 8 21 -7 -4 -10 -1 -13 9 -9 7 3 14 0 14 -7
0 -6 5 -8 10 -5 6 4 8 11 5 16 -4 5 -1 17 5 26 10 16 10 16 5 -3 -3 -13 1 -26
11 -35 15 -12 16 -12 10 6 -4 16 -1 21 14 22 11 1 20 -3 20 -8 0 -6 -4 -7 -10
-4 -5 3 -10 0 -10 -8 0 -18 28 -18 34 0 3 8 10 11 16 8 5 -3 10 -1 10 4 0 6 5
11 12 11 9 0 9 -3 0 -12 -20 -20 -13 -32 8 -13 11 10 23 15 27 12 3 -4 2 -7
-4 -7 -6 0 -9 -13 -8 -30 1 -16 -2 -30 -7 -30 -6 0 -7 7 -4 16 4 10 2 13 -6 8
-6 -4 -8 -3 -5 3 3 5 0 10 -7 10 -10 0 -10 -6 2 -27 16 -28 26 -31 49 -17 6 4
14 3 17 -2 4 -5 3 -11 -1 -13 -5 -1 3 -14 16 -28 l25 -25 -17 28 c-18 27 -11
37 11 15 9 -9 12 -9 12 0 0 7 -4 12 -10 12 -5 0 -10 4 -10 8 0 5 7 9 15 9 8 0
15 -4 15 -9 0 -4 5 -8 11 -8 8 0 8 5 -1 15 -8 10 -9 15 -2 15 6 0 15 -7 20
-16 7 -12 9 -5 8 23 -1 42 -12 47 -52 25 -12 -6 -24 -8 -28 -5 -3 3 -6 1 -6
-5 0 -15 6 -15 30 -2 14 7 18 6 16 -5 -1 -8 -6 -18 -11 -22 -4 -4 -5 -2 -1 5
4 6 2 12 -3 12 -6 0 -11 -4 -11 -8 0 -5 -7 -9 -15 -9 -14 0 -19 10 -16 30 1 5
-3 6 -9 2 -6 -3 -7 0 -4 9 4 11 11 13 22 7 16 -9 28 -3 65 36 15 15 24 18 29
10 4 -7 -2 -17 -15 -25z m-327 18 c0 -5 -5 -10 -11 -10 -5 0 -7 5 -4 10 3 6 8
10 11 10 2 0 4 -4 4 -10z m230 0 c0 -5 -5 -10 -11 -10 -5 0 -7 5 -4 10 3 6 8
10 11 10 2 0 4 -4 4 -10z m97 -65 c0 -20 -4 -19 -17 5 -8 15 -8 18 3 14 8 -3
14 -11 14 -19z m-97 -14 c0 -6 -4 -12 -8 -15 -5 -3 -9 1 -9 9 0 8 4 15 9 15 4
0 8 -4 8 -9z m-81 -644 c44 2 64 -1 75 -13 9 -8 16 -12 16 -8 0 3 6 1 13 -5 8
-6 17 -7 21 -3 4 4 6 0 4 -8 -2 -9 3 -14 12 -12 8 2 12 1 8 -3 -9 -9 10 -28
36 -38 10 -4 16 -10 13 -14 -4 -3 -2 -12 4 -19 11 -14 19 -93 11 -109 -3 -5
-7 -20 -8 -33 -4 -38 -53 -101 -100 -128 -147 -86 -332 7 -349 176 -2 28 1 47
10 57 19 18 17 18 43 4 17 -9 22 -9 22 1 0 9 3 9 10 -2 9 -13 11 -13 20 0 5 8
10 10 10 4 0 -6 -7 -17 -15 -24 -15 -13 -12 -30 6 -30 6 0 7 5 4 10 -3 6 -1
10 5 10 7 0 10 -6 7 -14 -3 -7 0 -19 6 -27 7 -7 -1 -5 -17 5 -16 10 -26 13
-22 8 4 -7 -1 -9 -14 -7 -22 4 -36 -10 -20 -20 6 -4 7 -12 4 -18 -4 -7 -4 -9
1 -5 4 4 15 0 23 -10 10 -12 9 -9 -2 10 -10 17 -12 29 -6 33 6 3 10 0 10 -7 0
-10 3 -9 11 2 9 12 10 11 6 -7 -5 -21 -3 -22 16 -11 12 7 27 11 34 10 6 -1 14
2 18 8 3 5 11 10 16 10 6 0 7 -4 4 -10 -3 -5 -1 -10 5 -10 7 0 10 6 7 14 -3 8
2 16 14 19 20 5 27 27 8 27 -5 0 -7 -6 -3 -12 4 -7 3 -10 -1 -5 -5 4 -19 0
-33 -9 -15 -10 -21 -11 -17 -3 5 8 4 10 -4 5 -6 -4 -8 -12 -5 -18 4 -6 1 -9
-6 -6 -7 2 -14 11 -16 20 -1 10 3 15 11 12 9 -4 13 2 11 20 -2 14 0 23 5 20 4
-2 12 4 18 14 10 19 47 27 56 11 4 -5 -2 -6 -11 -2 -11 4 -15 3 -10 -5 3 -6 2
-13 -4 -17 -5 -3 -10 -11 -10 -17 0 -6 7 -5 18 4 9 9 23 13 31 10 9 -3 11 0 6
8 -5 9 -4 11 4 6 6 -4 9 -12 6 -17 -4 -5 -2 -9 4 -9 5 0 12 4 16 10 3 5 13 6
23 3 15 -6 15 -5 3 10 -12 15 -12 17 4 11 14 -6 16 -4 10 6 -5 9 -4 11 3 6 9
-5 8 -15 -3 -36 -19 -36 -19 -39 0 -36 19 3 32 16 15 16 -10 0 -10 3 0 14 6 8
19 12 27 9 11 -4 14 -2 9 5 -4 7 -3 12 2 12 5 0 9 -13 8 -29 0 -16 -5 -27 -10
-24 -5 4 -6 0 -1 -7 5 -8 4 -11 -3 -6 -6 3 -14 2 -17 -4 -5 -8 -11 -7 -21 1
-8 6 -14 9 -14 6 0 -3 -3 -12 -6 -21 -3 -9 -1 -16 6 -16 6 0 8 5 4 11 -4 7 -1
10 7 7 8 -3 14 -11 14 -18 0 -7 7 -15 15 -17 13 -4 13 -3 0 6 -14 10 -7 16 13
12 5 -1 5 4 1 10 -5 9 -2 10 9 6 12 -4 14 -2 10 11 -5 14 -3 15 8 5 7 -7 17
-13 23 -13 5 0 2 6 -9 13 -12 10 -14 16 -7 21 7 4 12 2 12 -3 0 -6 5 -11 11
-11 8 0 8 4 1 13 -5 7 -6 21 -1 32 11 28 11 37 0 30 -6 -3 -8 4 -6 15 2 11 0
18 -6 15 -5 -4 -7 -10 -4 -15 3 -4 -2 -11 -11 -14 -22 -9 -24 -8 -18 9 4 9 -3
19 -20 26 -14 7 -26 16 -26 21 0 4 -5 8 -11 8 -5 0 -7 -4 -4 -10 3 -5 1 -10
-5 -10 -6 0 -8 12 -6 28 5 26 4 26 -9 8 -13 -17 -15 -18 -15 -3 0 9 -5 17 -11
17 -5 0 -7 -6 -3 -12 5 -9 2 -9 -9 1 -18 14 -23 26 -8 16 5 -3 12 -1 16 4 3 6
-5 8 -20 5 -14 -2 -25 0 -25 6 0 6 -5 8 -10 5 -6 -4 -8 -12 -4 -18 3 -7 0 -5
-8 4 -7 9 -21 15 -30 13 -12 -1 -15 3 -10 14 3 9 7 11 9 6 2 -6 29 -9 62 -7z
m-45 -35 c3 -5 -1 -9 -9 -9 -8 0 -12 4 -9 9 3 4 7 8 9 8 2 0 6 -4 9 -8z m-53
-66 c-9 -11 -9 -15 1 -19 7 -3 3 -4 -9 -4 -21 1 -21 2 -6 19 19 21 31 24 14 4z
m142 -6 c-3 -12 -8 -19 -11 -16 -5 6 5 36 12 36 2 0 2 -9 -1 -20z m-110 -3 c3
-8 2 -20 -3 -26 -5 -9 -7 -4 -7 13 0 29 2 32 10 13z m57 9 c0 -2 -7 -6 -15
-10 -8 -3 -15 -1 -15 4 0 6 7 10 15 10 8 0 15 -2 15 -4z m26 -16 c0 -12 -4
-16 -9 -11 -5 5 -6 14 -3 20 10 15 12 14 12 -9z m45 -3 c-10 -9 -11 -8 -5 6 3
10 9 15 12 12 3 -3 0 -11 -7 -18z m79 3 c0 -4 -7 -13 -15 -20 -10 -9 -15 -9
-15 -1 0 6 5 11 11 11 8 0 7 5 -1 15 -11 13 -10 14 4 9 9 -3 16 -10 16 -14z
m-241 -63 c1 -5 -3 -5 -9 -2 -5 3 -10 16 -9 28 0 21 1 21 9 2 5 -11 9 -24 9
-28z m281 24 c0 -10 -6 -24 -14 -30 -12 -10 -14 -9 -11 6 2 10 4 24 4 31 1 20
21 14 21 -7z"/>
<path d="M304 1801 c1 -9 -6 -16 -14 -17 -35 -3 -40 -5 -40 -15 0 -8 4 -8 13
-2 18 15 46 12 40 -5 -5 -11 -7 -11 -14 -1 -4 8 -11 10 -15 6 -9 -9 37 -46 56
-46 8 0 5 4 -7 9 -13 5 -23 12 -23 16 0 3 7 4 15 0 8 -3 14 -2 14 2 -3 20 2
32 11 27 6 -4 8 -10 6 -14 -3 -4 -1 -13 4 -21 8 -13 12 -12 24 5 8 11 12 24 9
29 -4 5 2 15 11 22 11 8 13 14 7 19 -6 3 -11 1 -11 -5 0 -6 -4 -9 -9 -5 -5 3
-13 0 -17 -6 -5 -8 -9 -7 -14 2 -12 18 -47 19 -46 0z m60 -12 c10 8 12 5 11
-11 -1 -12 -8 -24 -16 -26 -8 -3 -11 -1 -7 3 12 13 -12 34 -30 28 -14 -6 -15
-5 -2 9 13 14 16 14 23 1 6 -10 12 -11 21 -4z"/>
<path d="M445 1810 c-4 -6 -9 -8 -13 -6 -13 8 -38 -19 -38 -41 0 -12 4 -20 7
-17 4 2 10 0 14 -6 3 -5 12 -10 18 -10 8 0 8 3 -2 9 -9 6 -10 11 -2 15 6 4 14
0 17 -9 5 -12 9 -13 20 -4 10 8 18 8 27 1 10 -8 16 -6 25 9 7 11 17 17 23 13
6 -3 3 -11 -8 -20 -10 -7 -13 -14 -7 -14 12 0 40 29 37 39 -1 3 1 8 3 10 5 5
7 -17 4 -39 -1 -11 1 -12 10 -4 6 6 13 26 15 45 3 24 2 30 -5 19 -10 -17 -49
-21 -67 -8 -6 5 -14 4 -18 -2 -4 -7 -11 -8 -18 -1 -7 5 -16 10 -22 10 -5 1 -9
6 -7 11 3 13 -5 13 -13 0z m25 -27 c16 -7 29 -7 37 -1 7 5 13 5 17 0 3 -6 -2
-16 -11 -23 -13 -11 -17 -11 -21 -1 -3 10 -7 10 -18 1 -11 -9 -18 -8 -30 2
-12 10 -17 10 -23 0 -6 -10 -10 -9 -14 3 -4 10 -1 16 9 16 8 0 13 4 10 9 -7
11 8 8 44 -6z"/>
<path d="M607 1733 c5 -11 3 -14 -6 -8 -10 6 -11 3 -2 -14 14 -25 23 -28 14
-4 -5 11 -3 14 6 8 10 -6 11 -3 2 14 -14 25 -23 28 -14 4z"/>
<path d="M295 1706 c10 -14 19 -26 22 -26 7 0 -17 39 -28 46 -6 3 -3 -5 6 -20z"/>
<path d="M388 1723 c7 -3 16 -2 19 1 4 3 -2 6 -13 5 -11 0 -14 -3 -6 -6z"/>
<path d="M550 1721 c0 -5 5 -13 10 -16 6 -3 10 -2 10 4 0 5 -4 13 -10 16 -5 3
-10 2 -10 -4z"/>
<path d="M438 1713 c7 -3 16 -2 19 1 4 3 -2 6 -13 5 -11 0 -14 -3 -6 -6z"/>
<path d="M501 1716 c2 -2 15 -9 29 -15 24 -11 24 -11 6 3 -16 13 -49 24 -35
12z"/>
<path d="M400 1706 c0 -2 7 -7 16 -10 8 -3 12 -2 9 4 -6 10 -25 14 -25 6z"/>
<path d="M473 1695 c0 -8 4 -12 9 -9 4 3 8 9 8 15 0 5 -4 9 -8 9 -5 0 -9 -7
-9 -15z"/>
<path d="M630 1697 c0 -2 6 -10 14 -16 11 -9 16 -9 22 1 4 7 4 10 -1 6 -4 -4
-14 -3 -22 3 -7 6 -13 9 -13 6z"/>
<path d="M390 1679 c0 -5 5 -7 10 -4 6 3 10 8 10 11 0 2 -4 4 -10 4 -5 0 -10
-5 -10 -11z"/>
<path d="M527 1679 c7 -7 15 -10 18 -7 3 3 -2 9 -12 12 -14 6 -15 5 -6 -5z"/>
<path d="M573 1655 c0 -8 4 -12 9 -9 5 3 6 10 3 15 -9 13 -12 11 -12 -6z"/>
<path d="M527 950 c-18 -30 -11 -45 13 -29 13 7 13 9 1 9 -11 0 -10 4 3 19 10
10 13 21 8 24 -4 3 -16 -7 -25 -23z"/>
<path d="M364 945 c-18 -13 -16 -14 14 -10 18 2 30 0 27 -5 -3 -5 -12 -7 -20
-4 -10 4 -13 0 -10 -15 2 -12 0 -19 -6 -16 -5 4 -7 11 -4 16 4 5 1 9 -5 9 -8
0 -9 -7 -5 -17 5 -10 8 -25 9 -34 0 -9 6 -16 13 -16 8 0 11 7 8 16 -6 20 8 43
25 39 7 -2 14 8 16 21 3 14 2 22 -2 18 -4 -3 -14 -2 -24 3 -12 6 -23 5 -36 -5z"/>
<path d="M585 920 c2 -16 0 -30 -3 -30 -4 0 -13 -10 -21 -22 -14 -22 -13 -22
5 -8 10 8 22 19 25 23 3 5 13 2 21 -6 13 -13 16 -12 28 7 16 25 20 55 8 62 -4
3 -12 -5 -17 -18 -6 -13 -10 -18 -10 -11 -1 7 -10 17 -21 23 -17 9 -19 7 -15
-20z m54 -12 c14 5 14 3 2 -11 -10 -13 -18 -14 -32 -6 -11 5 -17 15 -13 20 4
7 10 7 16 1 6 -6 18 -8 27 -4z"/>
<path d="M703 936 c3 -7 0 -20 -6 -27 -7 -7 -2 -5 11 5 26 23 26 22 6 30 -11
4 -15 2 -11 -8z"/>
<path d="M592 861 c-11 -7 -11 -9 0 -14 9 -3 15 1 15 9 0 8 -1 14 -1 14 -1 0
-7 -4 -14 -9z"/>
<path d="M735 861 c-3 -5 0 -13 6 -17 8 -5 9 -3 4 6 -6 10 -4 12 9 7 10 -4 15
-3 11 3 -8 13 -22 13 -30 1z"/>
<path d="M513 840 c1 -21 10 -18 13 5 1 8 -2 15 -6 15 -5 0 -8 -9 -7 -20z"/>
<path d="M470 826 c0 -2 7 -7 16 -10 8 -3 12 -2 9 4 -6 10 -25 14 -25 6z"/>
<path d="M575 820 c-3 -5 -1 -10 4 -10 6 0 11 5 11 10 0 6 -2 10 -4 10 -3 0
-8 -4 -11 -10z"/>
<path d="M710 826 c0 -2 7 -7 16 -10 8 -3 12 -2 9 4 -6 10 -25 14 -25 6z"/>
<path d="M430 799 c0 -5 5 -7 10 -4 6 3 10 8 10 11 0 2 -4 4 -10 4 -5 0 -10
-5 -10 -11z"/>
<path d="M1245 2101 c-93 -23 -173 -89 -217 -180 -30 -60 -33 -75 -33 -161 0
-84 3 -102 29 -157 33 -73 103 -143 173 -175 40 -18 67 -22 158 -22 118 -1
169 14 243 70 35 28 36 27 -14 106 l-23 37 -66 -35 c-79 -41 -154 -46 -222
-15 -43 20 -86 74 -98 123 l-7 28 233 2 234 3 3 54 c2 34 -5 79 -18 124 -28
91 -99 167 -180 191 -55 17 -143 19 -195 7z m160 -153 c28 -22 61 -85 50 -97
-4 -3 -67 -6 -141 -6 -121 -1 -134 1 -134 17 0 21 56 87 84 98 42 17 112 11
141 -12z"/>
<path d="M1935 2097 c-132 -44 -211 -137 -235 -279 -28 -160 46 -310 188 -380
62 -31 73 -33 172 -33 88 0 113 4 155 23 57 26 115 64 115 74 0 6 -50 95 -66
116 -1 2 -19 -8 -41 -21 -56 -36 -108 -50 -173 -45 -88 6 -146 53 -170 138
l-9 30 236 0 236 0 -5 83 c-7 136 -66 234 -168 280 -56 25 -178 32 -235 14z
m171 -143 c28 -19 54 -63 54 -91 0 -16 -12 -18 -140 -18 -91 -1 -140 3 -140
10 0 22 41 76 72 95 41 25 119 27 154 4z"/>
<path d="M1113 1175 c-25 -18 -31 -59 -10 -72 6 -4 31 -10 55 -13 23 -3 44 -9
45 -15 3 -14 -58 -18 -82 -6 -15 8 -20 7 -25 -6 -9 -23 11 -33 70 -33 38 0 55
5 68 19 35 39 -4 81 -75 81 -36 0 -38 17 -4 26 16 4 34 0 49 -10 23 -15 25
-14 31 5 9 27 6 29 -51 35 -36 4 -55 1 -71 -11z"/>
<path d="M1322 1165 c-65 -55 -28 -135 63 -135 122 0 129 141 8 157 -32 4 -45
0 -71 -22z m106 -28 c22 -17 14 -56 -13 -69 -41 -18 -80 0 -80 37 0 46 51 64
93 32z"/>
<path d="M1520 1110 c0 -77 1 -80 23 -80 21 0 23 4 19 31 -5 31 -5 31 37 27
37 -3 41 -1 41 19 0 20 -5 23 -40 23 -30 0 -40 4 -40 16 0 14 9 16 58 12 50
-3 58 -2 59 14 2 16 -7 18 -78 18 l-79 0 0 -80z"/>
<path d="M1690 1170 c0 -16 7 -20 30 -20 l30 0 0 -60 c0 -56 2 -60 23 -60 21
0 22 3 19 60 l-4 60 31 0 c24 0 31 4 31 20 0 18 -7 20 -80 20 -73 0 -80 -2
-80 -20z"/>
<path d="M1860 1183 c0 -3 12 -39 28 -79 21 -58 31 -74 47 -74 16 0 24 11 34
45 7 25 17 45 21 45 4 0 14 -20 21 -45 10 -34 18 -45 34 -45 16 0 25 14 41 63
12 34 25 70 29 80 6 14 2 17 -21 17 -15 0 -25 -3 -22 -6 4 -3 -1 -26 -10 -52
l-15 -46 -15 39 c-8 22 -14 46 -15 53 0 6 -13 12 -29 12 -21 0 -28 -5 -28 -19
0 -10 -6 -33 -13 -50 l-13 -31 -12 33 c-7 19 -12 41 -12 50 0 11 -8 17 -25 17
-14 0 -25 -3 -25 -7z"/>
<path d="M2200 1176 c0 -7 -15 -43 -33 -80 -33 -65 -33 -66 -11 -66 13 0 24 8
27 19 3 13 14 19 33 19 32 0 57 -15 48 -29 -3 -5 9 -9 26 -9 l32 0 -36 64
c-20 35 -36 71 -36 80 0 10 -9 16 -25 16 -15 0 -25 -6 -25 -14z m40 -78 c0 -5
-9 -8 -20 -8 -18 0 -19 3 -9 21 9 17 13 19 20 8 5 -8 9 -17 9 -21z"/>
<path d="M2355 1110 c0 -79 0 -80 26 -80 23 0 25 3 21 30 -4 25 -1 30 16 30
13 0 28 -12 39 -30 11 -20 25 -30 41 -30 24 0 23 9 -6 43 -14 16 -14 19 6 33
55 38 9 84 -83 84 l-60 0 0 -80z m122 36 c12 -12 -11 -26 -43 -26 -28 0 -34 4
-34 21 0 19 4 21 36 16 20 -3 39 -8 41 -11z"/>
<path d="M2565 1111 l0 -80 78 -3 c71 -3 77 -2 77 17 0 18 -6 20 -55 17 -45
-3 -55 -1 -55 12 0 12 10 16 35 16 30 0 35 3 35 23 0 20 -4 23 -35 19 -28 -3
-35 -1 -35 13 0 15 8 17 55 13 48 -4 55 -2 55 14 0 16 -9 18 -77 18 l-78 0 0
-79z"/>
<path d="M2316 954 c-28 -29 -32 -48 -16 -88 13 -34 31 -33 28 2 -3 43 10 69
42 82 16 7 27 16 24 21 -11 18 -52 8 -78 -17z"/>
<path d="M1107 923 c-4 -3 -7 -23 -7 -44 0 -27 8 -46 26 -66 20 -22 24 -23 19
-8 -15 41 -18 105 -6 105 7 0 9 5 6 10 -7 11 -28 13 -38 3z"/>
<path d="M2145 855 c-31 -30 -33 -75 -4 -101 l21 -19 -7 33 c-9 42 15 82 50
82 28 0 33 15 9 24 -28 11 -44 6 -69 -19z"/>
<path d="M2494 860 c-27 -11 -48 -62 -40 -95 7 -26 36 -35 36 -11 0 21 50 65
67 59 11 -4 14 1 11 23 -2 23 -8 29 -28 31 -14 1 -34 -2 -46 -7z"/>
<path d="M1977 778 c-26 -20 -37 -61 -24 -88 18 -35 34 -36 29 -1 -6 41 12 67
50 76 29 6 31 8 13 15 -29 12 -49 12 -68 -2z"/>
<path d="M2316 749 c-29 -23 -36 -78 -12 -98 12 -10 17 -8 27 11 17 32 40 47
71 48 22 0 26 4 21 18 -18 46 -63 55 -107 21z"/>
<path d="M1321 738 c-9 -23 1 -61 21 -85 16 -20 30 -15 18 6 -15 29 -12 71 5
77 24 10 17 24 -10 24 -17 0 -28 -7 -34 -22z"/>
<path d="M1201 728 c-9 -25 21 -98 40 -98 6 0 6 6 -1 19 -13 26 -13 81 1 81 5
0 7 5 4 10 -11 18 -35 11 -44 -12z"/>
<path d="M1790 690 c-11 -11 -20 -26 -20 -34 0 -29 20 -66 35 -66 13 0 14 4 4
21 -16 32 3 66 42 74 23 5 28 10 18 16 -24 15 -58 10 -79 -11z"/>
<path d="M2148 659 c-29 -21 -37 -60 -18 -89 7 -12 13 -10 34 13 14 15 33 28
43 29 10 0 24 2 32 2 40 3 11 53 -34 61 -21 4 -38 -1 -57 -16z"/>
<path d="M1630 628 c-23 -25 -19 -51 11 -82 18 -19 18 -19 12 17 -6 41 8 67
39 67 10 0 16 5 13 10 -11 18 -54 11 -75 -12z"/>
<path d="M1470 580 c-14 -26 7 -73 35 -79 20 -3 20 -3 1 17 -21 25 -15 51 14
59 30 8 24 23 -10 23 -19 0 -33 -7 -40 -20z"/>
<path d="M2005 592 c-46 -10 -69 -55 -45 -92 8 -12 14 -10 37 12 20 19 37 26
61 24 36 -2 42 12 15 36 -23 19 -43 25 -68 20z"/>
<path d="M1343 558 c-12 -16 -9 -46 7 -62 8 -8 14 -6 22 7 8 15 17 18 47 12
l36 -7 -29 31 c-31 32 -66 40 -83 19z"/>
<path d="M1818 518 c-26 -9 -33 -23 -28 -58 4 -30 19 -33 40 -7 20 25 42 28
86 12 21 -7 3 32 -19 43 -38 18 -51 19 -79 10z"/>
<path d="M1652 458 c-21 -21 -7 -68 20 -68 4 0 8 6 8 14 0 20 30 28 68 17 38
-11 41 -3 9 27 -26 24 -85 30 -105 10z"/>
<path d="M1510 425 c-12 -15 -5 -55 11 -55 5 0 18 5 28 12 15 9 26 9 47 0 14
-7 29 -10 32 -8 9 9 -22 39 -55 53 -41 17 -48 16 -63 -2z"/>
</g>
</svg>
